<svg width="51" height="39" viewBox="0 0 51 39" fill="none" xmlns="http://www.w3.org/2000/svg">
<path d="M34.6878 21.1905C37.8984 19.9534 42.2317 17.7072 45.4087 14.8075M9.48369 24.6484C15.4419 23.7271 18.1151 29.9259 15.1269 33.9301C14.4221 34.8745 12.9848 35.635 12.4931 35.8458M45.4087 14.8075C49.2423 11.3085 52.18 6.26698 47.854 2.08118C45.597 0.139915 45.4087 0.172786 32.6188 7.63673C24.8446 12.2934 10.6125 16.5826 7.97914 17.7326C2.90185 19.0492 -3.38113 28.0904 5.34589 35.022C6.5398 35.9068 9.34561 37.1697 12.4931 35.8458M45.4087 14.8075C48.3927 17.856 50.4942 24.1421 39.0137 27.8554M32.6188 29.3802C35.1113 28.9489 37.227 28.4333 39.0137 27.8554M39.0137 27.8554C40.5328 37.8713 29.4224 35.75 23.4036 35.75M20.8774 34.7301C21.6416 35.4551 22.2642 35.75 23.4036 35.75M23.4036 35.75C22.6154 37.7549 19.6298 39.5622 12.4931 35.8458" stroke="#BEBEBE" stroke-width="2" stroke-linecap="round" stroke-linejoin="round" stroke-dasharray="0.1 3"/>
</svg>
